<svg width="718" height="80" viewBox="0 0 718 80" fill="none" xmlns="http://www.w3.org/2000/svg">
<rect x="144" y="34" width="10" height="46" fill="#FF3D00" fill-opacity="0.12"/>
<rect x="156" y="76" width="10" height="4" fill="#FF3D00" fill-opacity="0.12"/>
<rect x="168" y="76" width="10" height="4" fill="#FF3D00" fill-opacity="0.12"/>
<rect x="180" y="76" width="10" height="4" fill="#00FFF0" fill-opacity="0.15"/>
<rect x="192" y="70" width="10" height="10" fill="#FF3D00" fill-opacity="0.12"/>
<rect x="204" y="70" width="10" height="10" fill="#00FFF0" fill-opacity="0.15"/>
<rect x="216" y="70" width="10" height="10" fill="#FF3D00" fill-opacity="0.12"/>
<rect x="228" y="76" width="10" height="4" fill="#00FFF0" fill-opacity="0.15"/>
<rect x="240" y="76" width="10" height="4" fill="#FF3D00" fill-opacity="0.12"/>
<rect x="252" y="70" width="10" height="10" fill="#00FFF0" fill-opacity="0.15"/>
<rect x="264" y="78" width="10" height="2" fill="#FF3D00" fill-opacity="0.12"/>
<rect x="276" y="76" width="10" height="4" fill="#FF3D00" fill-opacity="0.12"/>
<rect x="288" y="73" width="10" height="7" fill="#00FFF0" fill-opacity="0.15"/>
<rect x="300" y="73" width="10" height="7" fill="#00FFF0" fill-opacity="0.15"/>
<rect x="312" y="73" width="10" height="7" fill="#00FFF0" fill-opacity="0.15"/>
<rect x="324" y="73" width="10" height="7" fill="#FF3D00" fill-opacity="0.12"/>
<rect x="336" y="70" width="10" height="10" fill="#FF3D00" fill-opacity="0.12"/>
<rect x="348" width="10" height="80" fill="#00FFF0" fill-opacity="0.15"/>
<rect x="360" y="73" width="10" height="7" fill="#FF3D00" fill-opacity="0.12"/>
<rect x="372" y="73" width="10" height="7" fill="#FF3D00" fill-opacity="0.12"/>
<rect x="384" y="73" width="10" height="7" fill="#00FFF0" fill-opacity="0.15"/>
<rect x="396" y="73" width="10" height="7" fill="#FF3D00" fill-opacity="0.12"/>
<rect x="408" y="63" width="10" height="17" fill="#00FFF0" fill-opacity="0.15"/>
<rect x="420" y="55" width="10" height="25" fill="#00FFF0" fill-opacity="0.15"/>
<rect x="588" y="55" width="10" height="25" fill="#00FFF0" fill-opacity="0.15"/>
<rect x="432" y="76" width="10" height="4" fill="#00FFF0" fill-opacity="0.15"/>
<rect x="600" y="76" width="10" height="4" fill="#00FFF0" fill-opacity="0.15"/>
<rect x="444" y="76" width="10" height="4" fill="#FF3D00" fill-opacity="0.12"/>
<rect x="612" y="76" width="10" height="4" fill="#FF3D00" fill-opacity="0.12"/>
<rect x="456" y="70" width="10" height="10" fill="#00FFF0" fill-opacity="0.15"/>
<rect x="624" y="70" width="10" height="10" fill="#00FFF0" fill-opacity="0.15"/>
<rect x="468" y="70" width="10" height="10" fill="#00FFF0" fill-opacity="0.15"/>
<rect x="636" y="70" width="10" height="10" fill="#00FFF0" fill-opacity="0.15"/>
<rect x="480" y="76" width="10" height="4" fill="#FF3D00" fill-opacity="0.12"/>
<rect x="648" y="76" width="10" height="4" fill="#FF3D00" fill-opacity="0.12"/>
<rect x="492" y="76" width="10" height="4" fill="#00FFF0" fill-opacity="0.15"/>
<rect x="660" y="76" width="10" height="4" fill="#00FFF0" fill-opacity="0.15"/>
<rect x="504" y="73" width="10" height="7" fill="#FF3D00" fill-opacity="0.12"/>
<rect x="672" y="73" width="10" height="7" fill="#FF3D00" fill-opacity="0.12"/>
<rect x="516" y="70" width="10" height="10" fill="#00FFF0" fill-opacity="0.15"/>
<rect x="684" y="70" width="10" height="10" fill="#00FFF0" fill-opacity="0.15"/>
<rect x="528" y="76" width="10" height="4" fill="#00FFF0" fill-opacity="0.15"/>
<rect x="696" y="76" width="10" height="4" fill="#00FFF0" fill-opacity="0.15"/>
<rect x="540" y="73" width="10" height="7" fill="#FF3D00" fill-opacity="0.12"/>
<rect x="708" y="73" width="10" height="7" fill="#FF3D00" fill-opacity="0.12"/>
<rect x="552" y="73" width="10" height="7" fill="#00FFF0" fill-opacity="0.15"/>
<rect x="564" y="63" width="10" height="17" fill="#FF3D00" fill-opacity="0.12"/>
<rect x="576" y="63" width="10" height="17" fill="#00FFF0" fill-opacity="0.15"/>
<rect x="120" y="78" width="10" height="2" fill="#FF3D00" fill-opacity="0.12"/>
<rect x="96" y="63" width="10" height="17" fill="#00FFF0" fill-opacity="0.15"/>
<rect x="72" y="70" width="10" height="10" fill="#00FFF0" fill-opacity="0.15"/>
<rect x="48" y="70" width="10" height="10" fill="#FF3D00" fill-opacity="0.12"/>
<rect x="24" y="70" width="10" height="10" fill="#00FFF0" fill-opacity="0.15"/>
<rect x="132" y="76" width="10" height="4" fill="#00FFF0" fill-opacity="0.15"/>
<rect x="108" y="59" width="10" height="21" fill="#FF3D00" fill-opacity="0.12"/>
<rect x="84" y="63" width="10" height="17" fill="#00FFF0" fill-opacity="0.15"/>
<rect x="60" y="76" width="10" height="4" fill="#00FFF0" fill-opacity="0.15"/>
<rect x="36" y="78" width="10" height="2" fill="#FF3D00" fill-opacity="0.12"/>
<rect x="12" y="40" width="10" height="40" fill="#FF3D00" fill-opacity="0.12"/>
<rect y="63" width="10" height="17" fill="#00FFF0" fill-opacity="0.15"/>
</svg>
