<svg width="146" height="32" viewBox="0 0 146 32" fill="none" xmlns="http://www.w3.org/2000/svg">
<g clip-path="url(#clip0_0_40)">
<path fill-rule="evenodd" clip-rule="evenodd" d="M24.8076 8.36944C21.4411 10.4747 18.235 12.8807 15.3494 15.4371C15.0288 15.7379 15.0288 16.189 15.3494 16.4897C18.235 19.0461 21.4411 21.4521 24.8076 23.5574C25.1282 23.7078 25.2885 24.1589 24.9679 24.4597C23.3648 27.016 21.2808 29.422 19.1968 31.6777C19.0365 31.9784 18.5556 31.9784 18.235 31.8281C11.3418 27.7679 5.25007 22.5048 0.120231 16.4897C-0.0400768 16.189 -0.0400768 15.8882 0.120231 15.5875C5.25007 9.42207 11.3418 4.15892 18.235 0.0987749C18.5556 -0.0516008 18.8762 -0.0516008 19.1968 0.249151C21.4411 2.35441 23.3648 4.76042 24.9679 7.46719C25.1282 7.76794 25.1282 8.21907 24.8076 8.36944ZM41.1589 15.1364C41.1589 15.2867 40.9986 15.2867 41.1589 15.4371L45.8079 22.204C45.8079 22.3544 45.8078 22.3544 45.6475 22.3544H42.2811C42.1208 22.3544 42.1208 22.3544 42.1208 22.204L38.9146 17.6927C38.9146 17.5424 38.7543 17.5424 38.594 17.6927L36.9909 19.1965V19.3469V22.0536C36.9909 22.204 36.8306 22.5048 36.51 22.5048H34.1054C33.9451 22.5048 33.6245 22.3544 33.6245 22.0536V10.7755C33.6245 10.6251 33.7848 10.3243 34.1054 10.3243H36.51C36.8306 10.3243 36.9909 10.4747 36.9909 10.7755V15.2867C36.9909 15.4371 37.1512 15.4371 37.3116 15.4371L42.1208 10.6251H42.2811H45.6475C45.8078 10.6251 45.8079 10.7755 45.8079 10.9258L41.1589 15.1364ZM57.0294 10.3243H59.434C59.5943 10.3243 59.9149 10.4747 59.9149 10.7755V22.0536C59.9149 22.204 59.7546 22.5048 59.434 22.5048H56.7088C56.5484 22.5048 56.3881 22.5048 56.3881 22.3544L51.5789 15.5875C51.5789 15.4371 51.2583 15.5875 51.2583 15.7379V22.204C51.2583 22.3544 51.098 22.6551 50.7774 22.6551H48.3728C48.2125 22.6551 47.8918 22.5048 47.8918 22.204V10.7755C47.8918 10.6251 48.0522 10.3243 48.3728 10.3243H51.098C51.2583 10.3243 51.4186 10.3243 51.4186 10.4747L56.2278 17.2416C56.2278 17.392 56.5485 17.2416 56.5485 17.2416V10.7755C56.7088 10.4747 56.8691 10.3243 57.0294 10.3243ZM73.2204 10.3243H70.8158C70.6555 10.3243 70.3349 10.4747 70.3349 10.7755V17.392C70.3349 18.1439 70.0143 18.7454 69.6937 19.1965C69.373 19.4972 68.7318 19.9484 68.0906 19.9484C67.4494 19.9484 66.8081 19.798 66.3272 19.3469C65.8463 18.8957 65.686 18.2942 65.686 17.5424V10.7755C65.686 10.6251 65.5257 10.3243 65.205 10.3243H62.8004C62.6401 10.3243 62.3195 10.4747 62.3195 10.7755V17.392C62.3195 18.4446 62.4798 19.3469 62.9608 20.0988C63.4417 20.8506 64.0829 21.4521 64.8844 21.9033C65.686 22.3544 66.8081 22.5048 67.9303 22.5048C69.0524 22.5048 70.0143 22.3544 70.9761 21.9033C71.7777 21.4521 72.4189 20.8506 72.8998 20.0988C73.3807 19.3469 73.541 18.4446 73.541 17.392V10.7755C73.541 10.4747 73.3807 10.3243 73.2204 10.3243ZM89.7321 10.3243H92.1367C92.297 10.3243 92.6176 10.4747 92.6176 10.7755V22.0536C92.6176 22.204 92.4573 22.5048 92.1367 22.5048H89.7321C89.5718 22.5048 89.2512 22.3544 89.2512 22.0536V10.7755C89.2512 10.4747 89.5718 10.3243 89.7321 10.3243ZM145.519 10.3243H143.595H137.343H135.42C135.259 10.3243 134.939 10.4747 134.939 10.7755V12.4296C134.939 12.58 135.099 12.8807 135.42 12.8807H137.343H138.626C138.786 12.8807 138.786 13.0311 138.786 13.0311V21.9033C138.786 22.0536 138.946 22.3544 139.267 22.3544H141.672C141.832 22.3544 142.153 22.204 142.153 21.9033V13.1815C142.153 13.0311 142.313 13.0311 142.313 13.0311H143.595H145.519C145.679 13.0311 146 12.8807 146 12.58V10.7755C146 10.4747 145.84 10.3243 145.519 10.3243ZM123.717 10.3243H132.534C132.694 10.3243 133.015 10.4747 133.015 10.7755V12.58C133.015 12.7303 132.855 13.0311 132.534 13.0311H126.763C126.603 13.0311 126.603 13.1815 126.603 13.1815V15.5875C126.603 15.7379 126.763 15.7379 126.763 15.7379H130.45C130.61 15.7379 130.61 15.8882 130.61 15.8882V17.9935C130.61 18.1439 130.45 18.1439 130.45 18.1439H126.763C126.603 18.1439 126.603 18.2942 126.603 18.2942V22.0536C126.603 22.204 126.442 22.5048 126.122 22.5048H123.717C123.557 22.5048 123.236 22.3544 123.236 22.0536V10.7755C123.236 10.4747 123.397 10.3243 123.717 10.3243ZM83.8007 18.8957C83.8007 19.4972 83.1595 19.9484 82.5183 19.9484H79.4724C79.3121 19.9484 79.3121 19.798 79.3121 19.798V17.6927C79.3121 17.5424 79.4724 17.5424 79.4724 17.5424H82.5183C82.6786 17.5424 82.8389 17.5424 82.9992 17.6927C83.4801 17.8431 83.8007 18.2942 83.8007 18.8957ZM79.3121 12.7303H81.877C82.0373 12.7303 82.1976 12.7303 82.3579 12.8807C82.8389 13.0311 83.1595 13.4822 83.1595 13.9333C83.1595 14.5348 82.5183 15.1364 81.877 15.1364H79.3121C79.1518 15.1364 79.1518 14.986 79.1518 14.986V13.0311C79.1518 12.8807 79.3121 12.7303 79.3121 12.7303ZM84.9229 16.0386C85.2435 15.7379 86.6862 14.986 86.6862 13.4822C86.6862 11.9785 85.2435 10.3243 83.6404 10.3243C82.9992 10.3243 81.3961 10.3243 79.793 10.3243C78.5106 10.3243 77.2281 10.3243 76.4266 10.3243C76.2663 10.3243 75.9456 10.4747 75.9456 10.7755V22.0536C75.9456 22.204 76.106 22.5048 76.4266 22.5048H82.6786C82.9992 22.5048 83.8007 22.5048 84.1213 22.3544C85.7244 22.0536 87.3275 20.8506 87.3275 19.1965C87.0069 16.9409 85.2435 16.189 84.9229 16.0386ZM110.893 16.3394C110.893 17.9935 112.335 19.3469 114.259 19.3469C116.183 19.3469 117.626 17.9935 117.626 16.3394C117.626 14.6852 116.183 13.3318 114.259 13.3318C112.335 13.3318 110.893 14.6852 110.893 16.3394ZM107.687 16.3394C107.687 13.0311 110.732 10.3243 114.419 10.3243C118.107 10.3243 121.152 13.0311 121.152 16.3394C121.152 19.6476 118.107 22.3544 114.419 22.3544C110.572 22.5048 107.687 19.798 107.687 16.3394ZM105.442 11.6777C105.282 11.5273 104.801 11.377 104.641 11.377C104.16 11.0762 103.519 10.9258 102.877 10.7755C102.076 10.4747 100.793 10.3243 99.9918 10.3243C99.0299 10.3243 97.9078 10.4747 97.2665 10.7755C96.465 11.0762 95.8238 11.5273 95.5032 12.1288C95.0222 12.7303 94.8619 13.3318 94.8619 14.0837C94.8619 14.8356 95.0222 15.4371 95.5032 15.8882C95.9841 16.4897 96.6253 16.7905 96.9459 16.9409C97.2665 17.0912 98.2284 17.392 99.1902 17.6927C99.8315 17.8431 100.473 18.1439 100.633 18.1439C100.954 18.2942 101.114 18.595 101.114 18.8957C101.114 19.3469 100.793 19.798 100.152 19.798C99.5108 19.798 98.549 19.4972 98.0681 19.3469C97.2665 19.0461 96.6253 18.7454 96.1444 18.2942C95.9841 18.1439 95.8238 18.2942 95.8238 18.2942L95.0222 19.798L94.8619 20.0988L94.5413 20.7003V20.8506C94.7016 21.001 95.1825 21.1514 95.3429 21.1514C95.8238 21.4521 96.465 21.6025 97.1062 21.7529C97.9078 22.0536 99.1902 22.204 99.9918 22.204C100.954 22.204 102.076 22.0536 102.717 21.7529C103.519 21.4521 104.16 21.001 104.48 20.3995C104.961 19.798 105.122 19.1965 105.122 18.4446C105.122 17.6927 104.961 17.0912 104.48 16.6401C104.32 16.4897 104.16 16.3394 103.999 16.189C103.679 15.8882 103.358 15.7379 103.038 15.5875C102.717 15.4371 101.755 15.1364 100.793 14.8356C100.152 14.6852 99.5108 14.3845 99.3505 14.3845C99.0299 14.2341 98.8696 13.9333 98.8696 13.6326C98.8696 13.1815 99.1902 12.7303 99.8315 12.7303C100.473 12.7303 101.435 13.0311 101.915 13.1815C102.717 13.4822 103.358 13.783 103.839 14.2341C103.999 14.3845 104.16 14.2341 104.16 14.2341L104.961 12.7303L105.122 12.4296L105.442 11.8281C105.603 11.8281 105.442 11.6777 105.442 11.6777Z" fill="white"/>
<path fill-rule="evenodd" clip-rule="evenodd" d="M25.1298 7.61726C23.8473 5.66238 22.5649 3.85787 20.9618 2.20374C15.351 8.66989 10.8624 16.3391 8.13721 24.4593C11.3434 27.1661 14.5495 29.5721 18.2366 31.8278C18.5572 31.9781 19.0381 31.9781 19.1984 31.6774C21.4427 29.5721 23.3664 27.1661 24.9695 24.6097C25.1298 24.309 25.1298 23.7075 24.8092 23.5571C21.4427 21.4518 18.3969 19.0458 15.351 16.4894C15.0304 16.1887 15.0304 15.8879 15.351 15.5872C18.2366 13.0308 21.4427 10.6248 24.8092 8.51952C25.1298 8.51952 25.2901 7.91801 25.1298 7.61726Z" fill="#3D7EFF"/>
</g>
<defs>
<clipPath id="clip0_0_40">
<rect width="146" height="32" fill="white"/>
</clipPath>
</defs>
</svg>
