<svg width="125" height="51" viewBox="0 0 125 51" fill="none" xmlns="http://www.w3.org/2000/svg">
<path d="M19.5184 21.8705C17.2362 21.8705 7.34663 39.5244 0.5 39.5244V50.5H124.5V32.0912C120.696 32.0912 119.936 0.5 116.132 0.5C112.328 0.5 110.046 16.2956 108.525 16.2956C107.003 16.2956 105.482 8.86237 102.439 8.86237C99.3957 8.86237 98.635 21.8705 95.592 21.8705C92.5491 21.8705 92.5491 14.4373 87.9847 14.4373C83.4202 14.4373 77.3344 26.5163 74.2914 26.5163H56.7945C54.5123 26.5163 52.9908 21.8705 49.9478 21.8705C46.9049 21.8705 46.1442 28.3746 43.1012 28.3746C40.0583 28.3746 40.819 23.7288 37.7761 23.7288C34.7331 23.7288 34.7331 30.2329 30.9294 30.2329C27.1258 30.2329 21.8006 21.8705 19.5184 21.8705Z" fill="url(#paint0_linear_2102_19891)"/>
<path d="M0.5 39.5244C7.34663 39.5244 17.2362 21.8705 19.5184 21.8705C21.8006 21.8705 27.1258 30.2329 30.9294 30.2329C34.7331 30.2329 34.7331 23.7288 37.7761 23.7288C40.819 23.7288 40.0583 28.3746 43.1012 28.3746C46.1442 28.3746 46.9049 21.8705 49.9478 21.8705C52.9908 21.8705 54.5123 26.5163 56.7945 26.5163C59.0767 26.5163 71.2485 26.5163 74.2914 26.5163C77.3343 26.5163 83.4202 14.4373 87.9847 14.4373C92.5491 14.4373 92.5491 21.8705 95.592 21.8705C98.635 21.8705 99.3957 8.86237 102.439 8.86237C105.482 8.86237 107.003 16.2956 108.525 16.2956C110.046 16.2956 112.328 0.5 116.132 0.5C119.936 0.5 120.696 32.0912 124.5 32.0912" stroke="white" stroke-linecap="round"/>
<defs>
<linearGradient id="paint0_linear_2102_19891" x1="62.5" y1="0.5" x2="62.5" y2="50.5" gradientUnits="userSpaceOnUse">
<stop stop-color="white" stop-opacity="0.6"/>
<stop offset="1" stop-color="white" stop-opacity="0"/>
</linearGradient>
</defs>
</svg>
