<svg width="36" height="36" viewBox="0 0 36 36" fill="none" xmlns="http://www.w3.org/2000/svg">
<path d="M18 1.5C27.1117 1.5 34.5 8.88833 34.5 18C34.5 27.1117 27.1117 34.5 18 34.5C8.88833 34.5 1.5 27.1163 1.5 18C1.5 8.88375 8.88833 1.5 18 1.5Z" fill="#00BD84"/>
<path d="M20.3236 16.1603V13.7037H25.9382V9.96375H10.6527V13.7037H16.2673V16.1603C11.7069 16.3712 8.27393 17.2741 8.27393 18.3557C8.27393 19.4374 11.7069 20.3403 16.2673 20.5511V28.4114H20.3281V20.5511C24.884 20.3403 28.3078 19.4374 28.3078 18.3557C28.3032 17.2741 24.8794 16.3712 20.3236 16.1603ZM20.3281 19.8865C20.2136 19.8911 19.6269 19.9278 18.3161 19.9278C17.2665 19.9278 16.5331 19.9003 16.2719 19.8865V19.8911C12.2431 19.7124 9.23185 19.0111 9.23185 18.1724C9.23185 17.3336 12.2385 16.6324 16.2719 16.4536V19.1853C16.5377 19.2036 17.2894 19.2494 18.3344 19.2494C19.5856 19.2494 20.2136 19.199 20.3327 19.1853V16.4445C24.3569 16.6232 27.359 17.3245 27.359 18.1632C27.3498 19.0019 24.3477 19.7032 20.3281 19.8865Z" fill="white"/>
</svg>
