<svg width="36" height="36" viewBox="0 0 36 36" fill="none" xmlns="http://www.w3.org/2000/svg">
<path d="M35.4612 22.3544C33.0568 31.9973 23.2891 37.8658 13.644 35.4611C4.00288 33.057 -1.86631 23.2898 0.539191 13.6476C2.94245 4.0036 12.7102 -1.86546 22.3525 0.538642C31.997 2.94274 37.8656 12.711 35.4612 22.3544V22.3544Z" fill="#F7931A"/>
<path d="M25.937 15.4356C26.2953 13.0405 24.4715 11.7529 21.9777 10.894L22.7866 7.64952L20.8115 7.15734L20.0239 10.3163C19.5047 10.1869 18.9713 10.0649 18.4414 9.94394L19.2346 6.76416L17.2606 6.27197L16.4511 9.51531C16.0213 9.41744 15.5994 9.3207 15.1898 9.21889L15.1921 9.20876L12.4682 8.5287L11.9427 10.638C11.9427 10.638 13.4082 10.9739 13.3773 10.9947C14.1772 11.1944 14.3218 11.7237 14.2976 12.1433L13.3761 15.8394C13.4313 15.8535 13.5027 15.8738 13.5815 15.9053C13.5157 15.8889 13.4453 15.8709 13.3728 15.8535L12.0811 21.0313C11.9832 21.2743 11.7352 21.6388 11.176 21.5004C11.1957 21.5291 9.74031 21.1421 9.74031 21.1421L8.75977 23.4027L11.3301 24.0434C11.8083 24.1632 12.2769 24.2887 12.7382 24.4068L11.9208 27.6884L13.8937 28.1806L14.7032 24.9338C15.2421 25.0801 15.7653 25.2151 16.2773 25.3422L15.4705 28.5738L17.4457 29.0659L18.2631 25.7905C21.6311 26.4278 24.1638 26.1708 25.2298 23.1249C26.0889 20.6724 25.1871 19.2577 23.415 18.3352C24.7055 18.0377 25.6776 17.1889 25.937 15.4356V15.4356ZM21.4241 21.7631C20.8137 24.2155 16.684 22.8897 15.3451 22.5573L16.4297 18.2098C17.7686 18.5439 22.062 19.2054 21.4241 21.7631ZM22.035 15.4001C21.4781 17.631 18.0409 16.4976 16.9259 16.2197L17.9092 12.2766C19.0242 12.5545 22.615 13.0731 22.035 15.4001Z" fill="white"/>
</svg>
