<svg width="36" height="36" viewBox="0 0 36 36" fill="none" xmlns="http://www.w3.org/2000/svg">
<circle cx="18" cy="18" r="18" fill="#23292F"/>
<g clip-path="url(#clip0_2102_19897)">
<path d="M25.1586 9H28.0854L21.9946 15.4732C19.7888 17.8162 16.2126 17.8162 14.0053 15.4732L7.91211 9H10.8412L15.4687 13.9173C16.1429 14.6306 17.0515 15.0304 17.9982 15.0304C18.9448 15.0304 19.8534 14.6306 20.5276 13.9173L25.1586 9Z" fill="white"/>
<path d="M10.8037 27H7.875L14.0054 20.4868C16.2111 18.1439 19.7873 18.1439 21.9946 20.4868L28.125 27H25.1982L20.5312 22.0427C19.857 21.3295 18.9484 20.9297 18.0018 20.9297C17.0551 20.9297 16.1465 21.3295 15.4723 22.0427L10.8037 27Z" fill="white"/>
</g>
<defs>
<clipPath id="clip0_2102_19897">
<rect width="20.25" height="18" fill="white" transform="translate(7.875 9)"/>
</clipPath>
</defs>
</svg>
